<svg id="Слой_1" data-name="Слой 1" xmlns="http://www.w3.org/2000/svg" xmlns:xlink="http://www.w3.org/1999/xlink" viewBox="0 0 130.27 50"><defs><style>.cls-1{fill:url(#linear-gradient);}.cls-2{fill:url(#linear-gradient-2);}.cls-3{fill:url(#linear-gradient-3);}.cls-4{fill:url(#linear-gradient-4);}.cls-13,.cls-5{fill:none;}.cls-6{fill:#7099ad;}.cls-7{fill:url(#linear-gradient-5);}.cls-8{fill:url(#linear-gradient-6);}.cls-9{fill:url(#linear-gradient-7);}.cls-10{fill:url(#linear-gradient-8);}.cls-11{fill:#bbd6dc;}.cls-12{fill:#fff;}.cls-13{stroke:#2d2d2d;stroke-miterlimit:10;stroke-width:3px;}.cls-14{fill:#5e5d57;}</style><linearGradient id="linear-gradient" x1="57.82" y1="13.55" x2="75.69" y2="13.55" gradientUnits="userSpaceOnUse"><stop offset="0" stop-color="#5b2732"/><stop offset="1" stop-color="#771e34"/></linearGradient><linearGradient id="linear-gradient-2" x1="76.35" y1="13.55" x2="94.93" y2="13.55" xlink:href="#linear-gradient"/><linearGradient id="linear-gradient-3" x1="95.59" y1="13.55" x2="114.17" y2="13.55" xlink:href="#linear-gradient"/><linearGradient id="linear-gradient-4" x1="115.04" y1="13.55" x2="130.27" y2="13.55" xlink:href="#linear-gradient"/><linearGradient id="linear-gradient-5" x1="8.99" y1="4.5" x2="40.97" y2="4.5" xlink:href="#linear-gradient"/><linearGradient id="linear-gradient-6" x1="40.97" y1="25" x2="50.06" y2="25" xlink:href="#linear-gradient"/><linearGradient id="linear-gradient-7" x1="0" y1="25" x2="8.99" y2="25" xlink:href="#linear-gradient"/><linearGradient id="linear-gradient-8" x1="8.99" y1="45.51" x2="40.97" y2="45.51" xlink:href="#linear-gradient"/></defs><title>logo-big</title><path class="cls-1" d="M70.8,12.85l-.1-3.2h.59L69.44,13,62.36,25.87H57.82V1.23h4.9V14l0,3.31h-.55l1.92-3.41L71.19,1.23h4.5V25.87H70.8Z" transform="translate(0 0)"/><path class="cls-2" d="M94.93,25.87H91.14v-2.6h-11v2.6H76.35V19.43h1.86A17.59,17.59,0,0,0,79,17.63a20.13,20.13,0,0,0,.85-3.23,48.34,48.34,0,0,0,.65-5,69.47,69.47,0,0,0,.16-7.23V1.23h12v18.2h2.31ZM88.3,19.43V5.07H84.57q-.06,2.8-.25,5.05t-.47,4q-.28,1.78-.62,3.09a20.54,20.54,0,0,1-.68,2.19Z" transform="translate(0 0)"/><path class="cls-3" d="M108,20.41h-6.6l-1.52,5.46H95.59l7.14-24.64h4.33l7.11,24.64h-4.55Zm-5.59-3.87h4.74L104.95,8.3h-.28Z" transform="translate(0 0)"/><path class="cls-4" d="M129.67,14.19A6,6,0,0,0,128,11.87a6.38,6.38,0,0,0-2.54-1.27,13.07,13.07,0,0,0-3.25-.38,11.49,11.49,0,0,0-1.53.1q-.77.1-1.31.21V5.46h9.29V1.23H115V25.87h7a11.53,11.53,0,0,0,3.1-.51,7.76,7.76,0,0,0,2.78-1.53,6.55,6.55,0,0,0,1.77-2.53,9.52,9.52,0,0,0,.62-3.57A9.17,9.17,0,0,0,129.67,14.19Zm-4.27,5.61a3.25,3.25,0,0,1-.85,1.18,3.49,3.49,0,0,1-1.25.68,5.13,5.13,0,0,1-1.53.22q-.63,0-1.34,0a4.87,4.87,0,0,1-1.06-.14V14.45a8,8,0,0,1,.92-.15,9,9,0,0,1,1.11-.09,9.55,9.55,0,0,1,1.66.14,3.35,3.35,0,0,1,1.37.56,2.9,2.9,0,0,1,.95,1.18,4.75,4.75,0,0,1,.35,2A4.3,4.3,0,0,1,125.41,19.8Z" transform="translate(0 0)"/><path class="cls-5" d="M34.76,15.24a18.76,18.76,0,0,1,0,19.52A18.81,18.81,0,0,0,42.68,25,18.81,18.81,0,0,0,34.76,15.24Z" transform="translate(0 0)"/><path class="cls-6" d="M25,7.33a18.81,18.81,0,0,1,9.73,7.91A18.81,18.81,0,0,1,42.68,25,18.78,18.78,0,0,0,41,8.93,18.78,18.78,0,0,0,25,7.33Z" transform="translate(0 0)"/><path class="cls-5" d="M34.76,15.24A18.81,18.81,0,0,0,25,7.33a18.81,18.81,0,0,0-9.69,7.85,18.76,18.76,0,0,1,19.42.06Z" transform="translate(0 0)"/><path class="cls-7" d="M25,7.33A18.78,18.78,0,0,1,41,8.93,18.75,18.75,0,0,0,9,9,18.78,18.78,0,0,1,25,7.33Z" transform="translate(0 0)"/><path class="cls-5" d="M15.34,34.82A18.81,18.81,0,0,0,25,42.67a18.81,18.81,0,0,0,9.73-7.91,18.76,18.76,0,0,1-19.42.06Z" transform="translate(0 0)"/><path class="cls-5" d="M15.34,15.18a18.81,18.81,0,0,0-8,9.82,18.81,18.81,0,0,0,8,9.82,18.76,18.76,0,0,1,0-19.64Z" transform="translate(0 0)"/><path class="cls-5" d="M34.76,15.24a18.76,18.76,0,0,0-19.42-.06,18.76,18.76,0,0,0,0,19.64,18.76,18.76,0,0,0,19.42-.06,18.76,18.76,0,0,0,0-19.52Z" transform="translate(0 0)"/><path class="cls-6" d="M42.68,25a18.81,18.81,0,0,1-7.92,9.76A18.81,18.81,0,0,1,25,42.67,18.78,18.78,0,0,0,41,41.07,18.78,18.78,0,0,0,42.68,25Z" transform="translate(0 0)"/><path class="cls-8" d="M41,8.93A18.78,18.78,0,0,1,42.68,25,18.78,18.78,0,0,1,41,41.07,18.75,18.75,0,0,0,41,8.93Z" transform="translate(0 0)"/><path class="cls-6" d="M7.32,25a18.81,18.81,0,0,1,8-9.82A18.81,18.81,0,0,1,25,7.33,18.78,18.78,0,0,0,9,9,18.78,18.78,0,0,0,7.32,25Z" transform="translate(0 0)"/><path class="cls-9" d="M7.32,25A18.78,18.78,0,0,1,9,9,18.75,18.75,0,0,0,9,41,18.78,18.78,0,0,1,7.32,25Z" transform="translate(0 0)"/><path class="cls-6" d="M25,42.67a18.81,18.81,0,0,1-9.69-7.85,18.81,18.81,0,0,1-8-9.82A18.78,18.78,0,0,0,9,41a18.78,18.78,0,0,0,16,1.66Z" transform="translate(0 0)"/><path class="cls-10" d="M25,42.67A18.78,18.78,0,0,1,9,41a18.75,18.75,0,0,0,32,.06A18.78,18.78,0,0,1,25,42.67Z" transform="translate(0 0)"/><path class="cls-11" d="M34.81,15.24a18.76,18.76,0,0,1,0,19.52A18.81,18.81,0,0,0,42.73,25,18.81,18.81,0,0,0,34.81,15.24Z" transform="translate(0 0)"/><path class="cls-11" d="M34.81,15.24a18.81,18.81,0,0,0-9.73-7.91,18.81,18.81,0,0,0-9.69,7.85,18.76,18.76,0,0,1,19.42.06Z" transform="translate(0 0)"/><path class="cls-11" d="M15.39,34.82a18.81,18.81,0,0,0,9.69,7.85,18.81,18.81,0,0,0,9.73-7.91,18.76,18.76,0,0,1-19.42.06Z" transform="translate(0 0)"/><path class="cls-11" d="M15.39,15.18a18.81,18.81,0,0,0-8,9.82,18.81,18.81,0,0,0,8,9.82,18.76,18.76,0,0,1,0-19.64Z" transform="translate(0 0)"/><path class="cls-12" d="M34.81,15.24a18.76,18.76,0,0,0-19.42-.06,18.76,18.76,0,0,0,0,19.64,18.76,18.76,0,0,0,19.42-.06,18.76,18.76,0,0,0,0-19.52Z" transform="translate(0 0)"/><line class="cls-13" x1="53.88" x2="53.88" y2="50"/><path class="cls-14" d="M60.17,30.59l.08-.79h0l-.3.85-1.57,2.92h-.78V28h1V30.9l-.09.81h0l.31-.87L60.39,28h.77v5.59h-1Z" transform="translate(0 0)"/><path class="cls-14" d="M64.45,31.2H62.95v2.36H62V28h1v2.3h1.51V28h1v5.59h-1Z" transform="translate(0 0)"/><path class="cls-14" d="M69.37,33.34a1.28,1.28,0,0,1-.55.26,3,3,0,0,1-.68.08,2.1,2.1,0,0,1-.79-.15,1.58,1.58,0,0,1-.64-.49,2.53,2.53,0,0,1-.43-.9,5.13,5.13,0,0,1-.16-1.37,4.72,4.72,0,0,1,.18-1.4,2.49,2.49,0,0,1,.46-.89,1.59,1.59,0,0,1,.66-.47,2.16,2.16,0,0,1,.75-.14,3.14,3.14,0,0,1,.67.06,2.59,2.59,0,0,1,.47.14l-.2.89a1.39,1.39,0,0,0-.35-.12,2.29,2.29,0,0,0-.48,0,.92.92,0,0,0-.84.48,3,3,0,0,0-.29,1.5,4.44,4.44,0,0,0,.07.8,2.05,2.05,0,0,0,.21.63,1.1,1.1,0,0,0,.37.41,1,1,0,0,0,.54.14,1.32,1.32,0,0,0,.47-.08,1.88,1.88,0,0,0,.35-.18Z" transform="translate(0 0)"/><path class="cls-14" d="M72.94,28.91h-1.3v4.66h-1V28.91H69.34V28h3.6Z" transform="translate(0 0)"/><path class="cls-14" d="M76,30.59l.08-.79h0l-.3.85-1.57,2.92h-.78V28h1V30.9l-.09.81h0l.32-.87L76.27,28H77v5.59H76Z" transform="translate(0 0)"/><path class="cls-14" d="M81.15,28.91h-1.3v4.66h-1V28.91H77.55V28h3.6Z" transform="translate(0 0)"/><path class="cls-14" d="M82.95,30.42l.12.74h0l.1-.77L83.83,28h1l-1.23,3.86q-.14.45-.27.79a2.71,2.71,0,0,1-.28.55,1,1,0,0,1-.33.33.88.88,0,0,1-.45.11,1.48,1.48,0,0,1-.37,0,1.05,1.05,0,0,1-.32-.15l.24-.85a.72.72,0,0,0,.2.08l.18,0q.29,0,.4-.61L80.93,28h1.17Z" transform="translate(0 0)"/><path class="cls-14" d="M88.27,28.91H87v4.66H86V28.91H84.67V28h3.6Z" transform="translate(0 0)"/><path class="cls-14" d="M94.22,34.57h-.7l-.09-1H90.59l-.09,1h-.7V32.64h.48a2.88,2.88,0,0,0,.15-.4,7.41,7.41,0,0,0,.2-.88q.1-.57.17-1.41t.06-2h2.81v4.66h.57Zm-1.56-1.92V28.91h-.88a19.81,19.81,0,0,1-.18,2.37,7.83,7.83,0,0,1-.3,1.36Z" transform="translate(0 0)"/><path class="cls-14" d="M94.77,28h2.76v.93H95.77v1.37h1.6v.93h-1.6v1.44h1.8v.93H94.77Z" transform="translate(0 0)"/><path class="cls-14" d="M100.61,28.91h-.83q-.06,1.52-.15,2.53A4.52,4.52,0,0,1,99.26,33a1.22,1.22,0,0,1-.22.32,1.13,1.13,0,0,1-.24.19,1,1,0,0,1-.25.1l-.23,0a1.38,1.38,0,0,1-.29,0,1.08,1.08,0,0,1-.24-.08l.11-.91a.39.39,0,0,0,.28,0,.45.45,0,0,0,.24-.26,2,2,0,0,0,.17-.51,8.23,8.23,0,0,0,.12-.87c0-.36.06-.78.08-1.27s0-1.06,0-1.71h2.77v5.59h-1Z" transform="translate(0 0)"/><path class="cls-14" d="M102.28,30.77a4,4,0,0,1,.48-2.16,1.63,1.63,0,0,1,1.47-.74,1.81,1.81,0,0,1,.88.2,1.63,1.63,0,0,1,.61.58,2.83,2.83,0,0,1,.35.92,5.82,5.82,0,0,1,.11,1.2,3.93,3.93,0,0,1-.49,2.16,1.64,1.64,0,0,1-1.46.74,1.8,1.8,0,0,1-.89-.2,1.64,1.64,0,0,1-.6-.58,2.76,2.76,0,0,1-.35-.92A5.94,5.94,0,0,1,102.28,30.77Zm1,0a6.11,6.11,0,0,0,0,.79,2.42,2.42,0,0,0,.16.63,1.14,1.14,0,0,0,.28.41.61.61,0,0,0,.42.15.73.73,0,0,0,.69-.47,3.69,3.69,0,0,0,.23-1.51,6,6,0,0,0,0-.77,2.65,2.65,0,0,0-.15-.63,1.1,1.1,0,0,0-.28-.42.62.62,0,0,0-.43-.16Q103.32,28.8,103.32,30.77Z" transform="translate(0 0)"/><path class="cls-14" d="M110,29.27a2,2,0,0,1,0,.41,1.52,1.52,0,0,1-.14.38,1.09,1.09,0,0,1-.25.32,1.06,1.06,0,0,1-.37.21v0a1.47,1.47,0,0,1,.36.14,1,1,0,0,1,.3.26,1.3,1.3,0,0,1,.2.4,1.85,1.85,0,0,1,.07.55,1.77,1.77,0,0,1-.15.75,1.39,1.39,0,0,1-.39.51,1.62,1.62,0,0,1-.58.3,2.49,2.49,0,0,1-.7.1h-.66l-.41,0a2.66,2.66,0,0,1-.39-.07V28l.64-.08q.38,0,.76,0a3.86,3.86,0,0,1,.67.06,1.52,1.52,0,0,1,.56.21,1.08,1.08,0,0,1,.38.42A1.47,1.47,0,0,1,110,29.27Zm-1.93,1.08h.2l.18,0a.92.92,0,0,0,.39-.29.8.8,0,0,0,.16-.52,1,1,0,0,0-.06-.35.53.53,0,0,0-.37-.35,1.05,1.05,0,0,0-.28,0,2.29,2.29,0,0,0-.46,0v1.55Zm.27,2.43a.73.73,0,0,0,.54-.21.86.86,0,0,0,.21-.63,1,1,0,0,0-.07-.42.58.58,0,0,0-.19-.24.65.65,0,0,0-.27-.11l-.32,0h-.4v1.59l.22,0Z" transform="translate(0 0)"/><path class="cls-14" d="M110.67,30.77a4,4,0,0,1,.48-2.16,1.63,1.63,0,0,1,1.47-.74,1.8,1.8,0,0,1,.88.2,1.64,1.64,0,0,1,.61.58,2.83,2.83,0,0,1,.35.92,5.82,5.82,0,0,1,.11,1.2,3.93,3.93,0,0,1-.49,2.16,1.64,1.64,0,0,1-1.46.74,1.8,1.8,0,0,1-.89-.2,1.64,1.64,0,0,1-.6-.58,2.8,2.8,0,0,1-.35-.92A6,6,0,0,1,110.67,30.77Zm1,0a6.11,6.11,0,0,0,0,.79,2.45,2.45,0,0,0,.16.63,1.14,1.14,0,0,0,.28.41.61.61,0,0,0,.42.15.73.73,0,0,0,.69-.47,3.69,3.69,0,0,0,.23-1.51,6,6,0,0,0,0-.77,2.65,2.65,0,0,0-.15-.63A1.1,1.1,0,0,0,113,29a.62.62,0,0,0-.43-.16Q111.71,28.8,111.71,30.77Z" transform="translate(0 0)"/><path class="cls-14" d="M117.94,28.91h-1.71v4.66h-1V28h2.7Z" transform="translate(0 0)"/><path class="cls-14" d="M118.08,30.77a4,4,0,0,1,.48-2.16,1.63,1.63,0,0,1,1.47-.74,1.8,1.8,0,0,1,.88.2,1.64,1.64,0,0,1,.61.58,2.83,2.83,0,0,1,.35.92,5.82,5.82,0,0,1,.11,1.2,3.93,3.93,0,0,1-.49,2.16,1.64,1.64,0,0,1-1.46.74,1.8,1.8,0,0,1-.89-.2,1.64,1.64,0,0,1-.6-.58,2.8,2.8,0,0,1-.35-.92A6,6,0,0,1,118.08,30.77Zm1,0a6.11,6.11,0,0,0,0,.79,2.45,2.45,0,0,0,.16.63,1.14,1.14,0,0,0,.28.41.61.61,0,0,0,.42.15.73.73,0,0,0,.69-.47,3.69,3.69,0,0,0,.23-1.51,6,6,0,0,0,0-.77,2.65,2.65,0,0,0-.15-.63,1.1,1.1,0,0,0-.28-.42.62.62,0,0,0-.43-.16Q119.12,28.8,119.12,30.77Z" transform="translate(0 0)"/><path class="cls-14" d="M59.79,39.66h-1.3l-.32,1.28h-1l1.6-5.63h.78l1.61,5.63h-1Zm-1.09-.81h.91l-.32-1.3-.13-.88h0l-.13.89Z" transform="translate(0 0)"/><path class="cls-14" d="M65.65,41.93h-.7l-.09-1H62l-.09,1h-.7V40h.48a2.92,2.92,0,0,0,.15-.4,7.5,7.5,0,0,0,.2-.88q.1-.57.17-1.41t.06-2h2.8V40h.57ZM64.09,40V36.27h-.87A19.81,19.81,0,0,1,63,38.64a7.83,7.83,0,0,1-.3,1.36Z" transform="translate(0 0)"/><path class="cls-14" d="M69.9,38.05,70,37h0l-.29,1-.9,2h-.33l-1-2-.29-1h0L67.31,38v2.89h-.94V35.35h1l1.15,2.42.19.69h0l.18-.71L70,35.35h.94v5.59h-1Z" transform="translate(0 0)"/><path class="cls-14" d="M74.3,38l.08-.79h0L74,38l-1.57,2.92h-.78V35.35h1v2.92l-.09.81h0l.31-.87,1.57-2.86h.77v5.59h-1Z" transform="translate(0 0)"/><path class="cls-14" d="M78.59,38.57H77.08v2.36h-1V35.35h1v2.3h1.51v-2.3h1v5.59h-1Z" transform="translate(0 0)"/><path class="cls-14" d="M83,38l.08-.79h0l-.3.85-1.57,2.92h-.78V35.35h1v2.92l-.09.81h0l.32-.87,1.57-2.86H84v5.59H83Z" transform="translate(0 0)"/><path class="cls-14" d="M87.9,40.71a1.27,1.27,0,0,1-.55.26,3,3,0,0,1-.68.08,2.11,2.11,0,0,1-.79-.15,1.59,1.59,0,0,1-.64-.49,2.54,2.54,0,0,1-.43-.9,5.11,5.11,0,0,1-.16-1.37,4.72,4.72,0,0,1,.18-1.4,2.48,2.48,0,0,1,.46-.89,1.59,1.59,0,0,1,.66-.47,2.17,2.17,0,0,1,.75-.14,3.11,3.11,0,0,1,.67.06,2.5,2.5,0,0,1,.47.14l-.2.89a1.41,1.41,0,0,0-.35-.12,2.28,2.28,0,0,0-.48,0,.92.92,0,0,0-.84.48,3,3,0,0,0-.29,1.5,4.44,4.44,0,0,0,.07.8,2,2,0,0,0,.21.63,1.09,1.09,0,0,0,.37.41,1,1,0,0,0,.54.14,1.32,1.32,0,0,0,.47-.08,1.91,1.91,0,0,0,.35-.18Z" transform="translate(0 0)"/><path class="cls-14" d="M91.46,36.27h-1.3v4.66h-1V36.27H87.86v-.92h3.6Z" transform="translate(0 0)"/><path class="cls-14" d="M92,35.4a5.74,5.74,0,0,1,.62-.1,6.64,6.64,0,0,1,.68,0,3.74,3.74,0,0,1,.71.07,1.56,1.56,0,0,1,.63.27,1.45,1.45,0,0,1,.45.56,2.21,2.21,0,0,1,.17.95,2.44,2.44,0,0,1-.15.89,1.66,1.66,0,0,1-.39.6,1.46,1.46,0,0,1-.56.34,2.11,2.11,0,0,1-.66.1h-.41L93,39v1.92H92Zm1,2.71.18,0h.18a1.13,1.13,0,0,0,.33,0,.68.68,0,0,0,.28-.16.78.78,0,0,0,.19-.32,1.57,1.57,0,0,0,.07-.52,1.32,1.32,0,0,0-.07-.45.74.74,0,0,0-.18-.29.67.67,0,0,0-.26-.16,1,1,0,0,0-.32,0,1.68,1.68,0,0,0-.4,0Z" transform="translate(0 0)"/><path class="cls-14" d="M98.42,38l.08-.79h0l-.3.85-1.57,2.92h-.78V35.35h1v2.92l-.09.81h0l.31-.87,1.57-2.86h.77v5.59h-1Z" transform="translate(0 0)"/><path class="cls-14" d="M100.21,35.4a5.79,5.79,0,0,1,.62-.1,6.67,6.67,0,0,1,.68,0,3.72,3.72,0,0,1,.71.07,1.56,1.56,0,0,1,.63.27,1.44,1.44,0,0,1,.45.56,2.21,2.21,0,0,1,.17.95,2.42,2.42,0,0,1-.15.89,1.66,1.66,0,0,1-.39.6,1.46,1.46,0,0,1-.56.34,2.11,2.11,0,0,1-.66.1h-.41l-.11,0v1.92h-1Zm1,2.71.18,0h.18a1.12,1.12,0,0,0,.33,0,.69.69,0,0,0,.28-.16.8.8,0,0,0,.19-.32,1.62,1.62,0,0,0,.07-.52,1.32,1.32,0,0,0-.07-.45.73.73,0,0,0-.18-.29.67.67,0,0,0-.26-.16,1,1,0,0,0-.31,0,1.7,1.7,0,0,0-.4,0Z" transform="translate(0 0)"/><path class="cls-14" d="M103.86,38.14a4,4,0,0,1,.48-2.16,1.63,1.63,0,0,1,1.47-.74,1.81,1.81,0,0,1,.88.2,1.64,1.64,0,0,1,.61.58,2.83,2.83,0,0,1,.35.92,5.82,5.82,0,0,1,.11,1.2,3.93,3.93,0,0,1-.49,2.16,1.64,1.64,0,0,1-1.46.74,1.8,1.8,0,0,1-.89-.2,1.64,1.64,0,0,1-.6-.58,2.76,2.76,0,0,1-.35-.92A5.94,5.94,0,0,1,103.86,38.14Zm1,0a6.11,6.11,0,0,0,0,.79,2.42,2.42,0,0,0,.16.63,1.14,1.14,0,0,0,.28.41.61.61,0,0,0,.42.15.73.73,0,0,0,.69-.47,3.69,3.69,0,0,0,.23-1.51,6,6,0,0,0,0-.77,2.65,2.65,0,0,0-.15-.63,1.1,1.1,0,0,0-.28-.42.62.62,0,0,0-.43-.16Q104.91,36.16,104.9,38.14Z" transform="translate(0 0)"/><path class="cls-14" d="M111.59,36.64a2,2,0,0,1,0,.41,1.52,1.52,0,0,1-.14.38,1.09,1.09,0,0,1-.25.32,1.06,1.06,0,0,1-.37.21v0a1.47,1.47,0,0,1,.36.14,1,1,0,0,1,.3.26,1.3,1.3,0,0,1,.2.4,1.85,1.85,0,0,1,.07.55,1.77,1.77,0,0,1-.15.75,1.39,1.39,0,0,1-.39.51,1.62,1.62,0,0,1-.58.3,2.49,2.49,0,0,1-.7.1h-.66l-.41,0a2.66,2.66,0,0,1-.39-.07V35.39l.64-.08c.26,0,.51,0,.76,0a4,4,0,0,1,.67.06,1.55,1.55,0,0,1,.56.21,1.08,1.08,0,0,1,.38.42A1.47,1.47,0,0,1,111.59,36.64Zm-1.93,1.08h.2l.18,0a.92.92,0,0,0,.39-.29.8.8,0,0,0,.16-.52,1,1,0,0,0-.06-.35.53.53,0,0,0-.37-.35,1.05,1.05,0,0,0-.28,0,2.29,2.29,0,0,0-.46,0v1.55Zm.27,2.43a.73.73,0,0,0,.54-.21.86.86,0,0,0,.21-.63,1,1,0,0,0-.07-.42.58.58,0,0,0-.19-.24.65.65,0,0,0-.27-.11l-.32,0h-.4v1.59l.22,0Z" transform="translate(0 0)"/><path class="cls-14" d="M114.61,39.66h-1.3L113,40.93h-1l1.6-5.63h.78L116,40.93h-1Zm-1.09-.81h.91l-.32-1.3-.13-.88h0l-.13.89Z" transform="translate(0 0)"/><path class="cls-14" d="M118.91,38.57h-1.51v2.36h-1V35.35h1v2.3h1.51v-2.3h1v5.59h-1Z" transform="translate(0 0)"/><path class="cls-14" d="M123.31,38l.08-.79h0L123,38l-1.57,2.92h-.78V35.35h1v2.92l-.09.81h0l.31-.87,1.57-2.86h.77v5.59h-1Z" transform="translate(0 0)"/><path class="cls-14" d="M128.21,40.93h-1V38.71l-.43.15-.88,2.08h-1.14l.9-1.9.39-.32a1.24,1.24,0,0,1-.69-.52,2,2,0,0,1-.28-1.13,2.23,2.23,0,0,1,.14-.85,1.34,1.34,0,0,1,.4-.55,1.63,1.63,0,0,1,.62-.3,3.24,3.24,0,0,1,.8-.09h.26l.31,0,.31,0,.27.06Zm-1-4.7-.14,0h-.17a1,1,0,0,0-.3,0,.57.57,0,0,0-.24.15.76.76,0,0,0-.16.28,1.41,1.41,0,0,0-.06.44,1,1,0,0,0,.22.72.75.75,0,0,0,.56.22h.3Z" transform="translate(0 0)"/><path class="cls-14" d="M60.17,45.32l.08-.79h0l-.3.85L58.34,48.3h-.78V42.71h1v2.92l-.09.81h0l.31-.87,1.57-2.86h.77V48.3h-1Z" transform="translate(0 0)"/><path class="cls-14" d="M63.66,42.71h2.89v.93h-1.9v1.21l.28,0,.32,0a2.31,2.31,0,0,1,.68.09,1.27,1.27,0,0,1,.51.3,1.33,1.33,0,0,1,.33.53,2.45,2.45,0,0,1,.11.8,1.93,1.93,0,0,1-.46,1.41,1.86,1.86,0,0,1-1.38.47h-.28l-.37,0-.39,0-.34-.06Zm1.46,4.77a.71.71,0,0,0,.53-.21,1,1,0,0,0,.2-.7,1.44,1.44,0,0,0-.06-.47.64.64,0,0,0-.17-.27.54.54,0,0,0-.25-.13,1.54,1.54,0,0,0-.32,0l-.22,0-.18,0v1.72l.21,0Z" transform="translate(0 0)"/><path class="cls-14" d="M70.1,45.32l.08-.79h0l-.3.85L68.27,48.3h-.78V42.71h1v2.92l-.09.81h0l.31-.87,1.57-2.86h.77V48.3h-1Z" transform="translate(0 0)"/><path class="cls-14" d="M72.31,45.8V45h.48a.88.88,0,0,0,.28,0,.75.75,0,0,0,.36-.24.68.68,0,0,0,.15-.45.67.67,0,0,0-.19-.54.79.79,0,0,0-.52-.15,1.48,1.48,0,0,0-.5.08,1.83,1.83,0,0,0-.37.17l-.25-.87.22-.1.32-.1.38-.08.41,0a2.77,2.77,0,0,1,.58.06,1.28,1.28,0,0,1,.49.22,1.08,1.08,0,0,1,.34.43,1.66,1.66,0,0,1,.13.7,1.73,1.73,0,0,1-.17.76,1.07,1.07,0,0,1-.55.52v0a1.07,1.07,0,0,1,.63.45,1.61,1.61,0,0,1,.22.91,1.91,1.91,0,0,1-.15.78,1.46,1.46,0,0,1-.39.53,1.58,1.58,0,0,1-.57.3,2.38,2.38,0,0,1-.67.1,3.81,3.81,0,0,1-.78-.08,1.9,1.9,0,0,1-.57-.2l.26-.89a1.92,1.92,0,0,0,.41.17,2.16,2.16,0,0,0,.62.08.81.81,0,0,0,.56-.21.85.85,0,0,0,.24-.67A.75.75,0,0,0,73.5,46a1.2,1.2,0,0,0-.76-.21h-.43Z" transform="translate(0 0)"/><path class="cls-14" d="M77.9,45.94H76.4V48.3h-1V42.71h1V45H77.9v-2.3h1V48.3h-1Z" transform="translate(0 0)"/><path class="cls-14" d="M79.69,42.71h2.76v.93H80.68V45h1.6v.93h-1.6v1.44h1.8v.93H79.69Z" transform="translate(0 0)"/><path class="cls-14" d="M86.29,48.08a1.27,1.27,0,0,1-.55.25,3,3,0,0,1-.68.08,2.09,2.09,0,0,1-.79-.15,1.57,1.57,0,0,1-.64-.49,2.52,2.52,0,0,1-.43-.9A5.1,5.1,0,0,1,83,45.5a4.72,4.72,0,0,1,.18-1.41,2.49,2.49,0,0,1,.46-.89,1.59,1.59,0,0,1,.66-.47,2.17,2.17,0,0,1,.75-.14,3.11,3.11,0,0,1,.67.06,2.63,2.63,0,0,1,.47.14l-.2.89a1.34,1.34,0,0,0-.35-.12,2.28,2.28,0,0,0-.48,0,.92.92,0,0,0-.84.48,3,3,0,0,0-.29,1.5,4.42,4.42,0,0,0,.07.8,2,2,0,0,0,.21.63,1.09,1.09,0,0,0,.37.41,1,1,0,0,0,.54.14,1.3,1.3,0,0,0,.47-.08,1.9,1.9,0,0,0,.35-.18Z" transform="translate(0 0)"/><path class="cls-14" d="M88.78,47h-1.3l-.32,1.28h-1l1.6-5.63h.78l1.61,5.63h-1Zm-1.09-.81h.91l-.32-1.3L88.16,44h0l-.13.89Z" transform="translate(0 0)"/></svg>