<svg id="svg2" xmlns="http://www.w3.org/2000/svg" viewBox="0 0 1036.49 602.33"><defs><style>.cls-1{fill:#addae2;}</style></defs><title>russia_light</title><g id="District_Outline" data-name="District Outline"><path id="Southern" class="cls-1" d="M27,602.17l-1.83-.33-1.33-1.67-1.67-2.33-2.17.33-1.33-4,.5-7.67-.67-5.67L17.21,578l-1.67-2.5.33-5-2-1.83L12.54,566l1-3-.83-3.33,1.83-1.83,2-.33,2.67,3.33,2.5.83,1.17-2.5L25.71,558l3.83-.17h2l2.5.83.5-4.17L33.21,552l.67-2.17,2,.33,1.83,1.33,2,1.83,1.5-1.5,2.33,1,3.83.5,2.83,1.17.67-3-2-1.5L46,549.33l-1.83-1.83-2-.67,2.5-2.67,3.67-1.67,3.17,1.33,2.83-1.17L57,545.5l4,4.33,3.67-3.67,2.5-1.5L66.54,541l2.33-2.33,2.33.33L71,536.33l6.17-.83,1.17-2.83L79.71,531,81,532.28v2.11h2.89L85,536h2.32l1.51-1.51h4.3l3.89-3.89,1.22-4H103l2.32-2.09,2.44.46.58,1.86,2.56,1.39h3.37l-.23,2.9,1,3.95,3.72.46,2.21,1.16v2l3.37-.12,3.95,3.83.47,4.65-3,2.9L128,552l1.22-1.22,2.38.87.7,3.37,1.57,1.57h2.38l.47,2.5,2,2,.12,3.34-1.17,2.67-2.17,1.58h-3.25l-2.58,2.58-2.17,2.17v3l-2.83,1.17-3-.17-2.17,2.17-2.67,1.84,1.08,3.25,2.42,2.42-1,4.33-2.17,2.17,2.17,1.33,3.17,3,2,2-.83,4.33.92,5.67v4.58l-1.75,1.75-1.67-1.83-2.5-.33.33,3,1.42,2.92,2.08,2.08-1.67,1.67-2.83.33h-5.67a34.81,34.81,0,0,1-3.58.25c-1.58,0-1.25-1.25-1.25-1.25l-2.5-.67-1.17-1.17-3-.5v2.33l-2.33,1-2.83,3.33H92.54l-3.5,1L87,628l-1.71,1.71v2.75L87,634.17l1,3.17-.83,3.17-.75,2.92-1.92,1.92v1.17L82.88,648l-3.67,6v4.67l1,5.67-.67,4.33.33,5.33-4,1.83-2.67-1.17L69.38,676l-3.67-.83-.5-3.17-1.83-5.5-.33-4-2.67-1.83V658.5L59,655l-2.33-3,1.5-2.5,1-2.83L56.71,644l-.83-3L53,640.67l-.58-1.75-2.08-2.08-3.67-.5L44.38,634l-.67-5.33-2.33-2.17.67-3.33-2.83-2.33L37.71,617l-2.5-1.17-3.67-2.5-1.17-4-2.5-3.83Z" transform="translate(-12.54 -94.83)"/><path id="Central" class="cls-1" d="M69.54,445.83l.83-3.33,1-3.67-2.5-2.5,1.67-1.17-.17-2.83,1-4L73.21,424l1.33-3.67,3.33-1,1.17-2.5,3.17-2.67,2.83-.25,2.25,2.75,1-2.83h2.33l1-1.75.92-2,.33-3.5,1.5-1.5.25-2.08,2.58-2.17,1,2.17,1.51,1.51h2.91l1.46,1.46,2.53-.16,1.94,1.19h3.56l1.89,1.89,2.32.27,1.4-1.4h2.8L122.3,406h2.21l1.83.92s.86,1.35,1.35,1.35.59,2.43.59,2.43h2.37l1.62,1.94h2.16l.43-1.4,1.4,1.4a17.35,17.35,0,0,0,2.7,1.08,12.52,12.52,0,0,1,2.37,1.08l1.51.86,1.94.76,2.7-.54,2.37.75-.86,2.8v3.34l2.05-.37,3.07-.29,1.75,1.75,4.17,2.85,1.61-1.61,3.14,3.14v6.58l3.95,3.95,3.65-1.61,4.09-1,3.66,1.61,3.36-1.61,2.19,4.68,4.31.8,3.29,3.29,1.17,3.22,6.14,3.22,2.27,3.29,1.53-1.54,3.65.88,2-3.22,3.87,3.43-2,2.27-.59,7.89h-4.68l-2,2.12-1.68-1.68-4,1.39-2.59,2.6-1.13-1.13h-3.14l-1.83-1.83L189.19,463h-2.92l-1.9,1.9-5.12,1.32-3.95-.88h-3.36l-1.32,3.36h-3.36l-2.34-2.34-1.9,1.9-.88,3.51L160,473.88l-4.31.51-3.65,1.17-3.36.59-2,2-2.78.58-1.89,1.9v3l1.61,1.1,1.1,1.1v1.61l.59,1.52-1.61,1.61-2,.51-1,1-1.56,1.56h-1.9V495l-1.48,1.48-1.9,1.31-1.61-.76-1.9,2.16-1.56,1.56.59,2.62-.59,4.39,1.35,2.45-.34,5.24h-2.79L126,517.2l-3.3,2-2.92,1.56-1.65,1.65-1.61.09-2.35,1.06,1.33,3.43-1.22,1.22h-3.37l-2.56-1.39-.58-1.86-2.44-.46L103,526.61H98.28l-1.22,4-3.89,3.89h-4.3L87.36,536H85l-1.16-1.62H81v-2.11L79.71,531l-2.83-1.33v-3.5l-2.18-2.46-.48-.54-1-3.83-2.5-1.5-2.67-3,1-3.5-1-5.17-3.17-2.33L61.21,501,60,497.17l-2.5-2-.83-2.33,2.17-2.5,1.67-3.67v-3.5l-1.83-3.33L56.88,477l1.67-1.33,1-2.5h2l1.5-1.33,1.17-4.5.33-2.67-1.33-3.33-1.83-1.83-2.5-.33-1.83-2L55.54,455l-2.25,1.92-1.75-1.75-1.5-2.5,1.5-2.67,3.17-3.17,2.17-2.5.83-3,2.5-.17,1.83,2,1,2.5,3.33,1.17Z" transform="translate(-12.54 -94.83)"/><path id="Volga" class="cls-1" d="M240.38,592.76h5.92l1.94-.76,2.7,1.18h1.69l1.18,2.11-.84,2.11-3.13,1.52.25,2.11h1.77l.5,2.62,1.08,2.42,2.33,2.33,1.58,1.58.67,2.83,2.33,2.33L258,618.33l-2.17,2.17h-3.67l-3.75.25-1.92-1.92-1.33-2.71H243.5l-1.79,1.79h-2.92l-3.25-3.25-.62-1.87-2.46-2.46v-4.25L230.38,604h-3.83l-3.17,1.17-1.17-2.5-3.17-2.5-2.83-1.5-3.83,1.83-3.5.5-2.83-.83-2-3.83-2.83-2.5-2,3.33H197V594.5l2-2-1.33-2.83L196,585.33l-.67-4.5-2.5-3-4-1.5-1.17-2.83-2.17-2.17-4,.67h-2.33v-3.17L178,565.5l-4.08-.75-2.08,2.08L168,568.17l-3.33-1.83h-3.5l-1.67,2.5h-7.33l-.83,1.83-2.17,2.17-.33,3.17-4.08-.75-2.42-2.42V569.5l1.08-3.25-1.75-1.75h-2.83l-.12-3.34-2-2-.47-2.5h-2.38l-1.57-1.57-.7-3.37-2.38-.87L128,552,125.81,550l3-2.9-.47-4.65-3.95-3.83-3.37.12v-2l-2.21-1.16-3.72-.46-1-3.95.23-2.9,1.22-1.22-1.33-3.43,2.35-1.06,1.61-.09,1.65-1.65,2.92-1.56,3.3-2,.93-1.69h2.79l.34-5.24-1.35-2.45.59-4.39-.59-2.62,3.47-3.72,1.61.76,1.9-1.31,1.48-1.48v-1.31h1.9l2.58-2.58,2-.51,1.61-1.61-.59-1.52v-1.61l-2.71-2.2v-3l1.89-1.9,2.78-.58,2-2,3.36-.59,3.65-1.17,4.31-.51,2.12-2.12.88-3.51,1.9-1.9,2.34,2.34h3.36l1.32-3.36h3.36l3.95.88,5.12-1.32,1.9-1.9h2.92l1.17,2.78,1.83,1.83h3.14l1.13,1.13,2.59-2.6,4-1.39,1.68,1.68,2-2.12h4.68l.59-7.89,2-2.27,1.1-1.1V450l2.34-1.17-3.65-3.8,1.75-1.61,3.16,1.4,5.93-5.93,1.79-1.54,1.25.42,3.17,3.75-.58,1.83,1.5.75.31,2.53-2,2V452l-3.22.73v2.19l-2.19,2.19v2.48l1.75,1.75v2.48l.73,2.63-1,2.34,1.17,1.17,1.9-2.34,1.17-3.36,2.92-.73,3.07,1.46,1.9,1.9,2.63-2.48,1.39,1.39.8,1.83,2.48-.29,1.54-1.54h2.7l2.55-1v-2l-1.69-1.69,1.56-3.06L255.5,460l1.19-1.19,1.19,1.19,1.63-1.62,2.13.75.88,1.38-.37,2.12,1.75,2.13L266,464l3.63,1.62L272,468l2.63-1.37,3,1.13,1.69-1.69,1.69.56,1.19,1.19,1.69-.56,1-2.12h1.75l3.88,2.62,3.75,2,4.25,1.63,5.75.88v2.62l-3.37,1.75V480L299,484.58l-3.37,3-2.5,3.75-2.25,2.25H288L285.25,496v4.25l2.13,3.37-1.12,3.75L284.57,509v1.19l1.81,1.88-2.06,2.06-2.06,1.69-2.87-.62-3,2,.13,1.63,1.31,1.31L276,522l-1.25,1.25-2-3H270.5l-1.75,2.87-.75,3.12-2.75,1.38H262l-1-1-1.12,2.25v2.88L258.57,533l-2.18,2.42,2.14,3,3.87,2.8h2.39l2,2.88,2.12-2.12.68,2.79-.76,2.54-2,3.72v2l-3.76.89-2.24,2.24-3.47-1.27v-2.28l-1.86-1.86-2.7-1.35-2.54-.76-3.64,2.71.68,3.21,1.61,1.61.51,4.48,2.11,3.38,4.14.42,1.77-1.18,4.06,1.27,1.18,3.63v3.21h-1.94l-1.18-1.61-2.79.25v1.18l-2.58.89-3.42,3.42v1.86l-2.2,3v2.88h-1.78l-2.28,4.14L244,589.8,241.4,591Z" transform="translate(-12.54 -94.83)"/><path id="Urals" class="cls-1" d="M287.88,583l5.67-.17,3.83,1.17h2.83l3.17,1.67,3.33-.67,1.92-1.92h1.75l4.33,2.25h4.5l3.67-.67,3,1.67,3.67-1h4.17l2-2.83,3.67.33,3.33,2h4.17l1.5,3h3v-2l.94-1.94,1.69-1.69V580l1.38-.25,1.75-1.75.69-1.75v-2.94l2.38-2.37,1.81-1.81,3.19-.56,1.19-1.19v-2.25l-2.5-1.37-.81-1.94-1.56-1.56-2.25-1.12v-1.87l2.62-1.25-1.12-3.37L361,550l2-2,1.5-2.5,2.5-1.75,2.62,2.62L368,548v2l2.25.75,2.87.88,1.88.88,2.12,1.37h2.75l1.75-1.62,2.87,1.5,2.5.75h4l3.31-1.56,2.69-2.69,1.5-2.13,4.72-2.76.51-3.49,4.52-3.29L413.8,537l-.31-5.23,1.95-4.82,2-3.9,5.34-.82,4,1.74h5.75l1.44,2.16,5.34.62,4.16-1.59,3.85,3.85,3.18-.82,4.41,2.26,1.23-4.1,6.57-2.77,6.16,4.52,3.8-3.8,6-2.57,2.46-4.11-4.72-2.05-4.21-2.77,0-5.12,4-3.92,1.42-1.42.25-3.75,2.42-2.42V492l-2.5-3.5,1.67-3.17,2.42-3.08L484,480l-1.17-2.67.67-3.5-.67-4-1.92,1.92-1.92-1.92-3.83-.83-.83-3.5,1.67-1.67-.33-3.83-1.5-3-2-2h-2l-1.83-3.33,1.5-1.17v-3l-1.17-2v-1.67l2.25-2.08-1.42-2.92-3.67-2.17v-2.33l-1.5-1.5,1.42-2.5-.54-3-1.62-1.62.08-2.67,2.33.5.63-2,1.79-1.79,1.08-3.17-1.33-2.5h1.25l.92-2.42-1.58-3.83v-2.58l-2.58-.5.08-3.25-2,1.92-1-1-2,1.75L460.12,403l-.42-2.17-3.17-.5-2.08-2.08-.46-1.79L452.53,395l-.17-3.08,3-2.29,2.46-2.46,1.25-2h3.33v-5.75l.33-4-3.58-2-1-2-.79.79-1-2.21.88-.87,1.42-1.42,3.17-.5-.33-1.75,1.58-1.58-.58-2.17-2.33-1.25-2.25-.58-1.25-1.25-.67-1.83h-1.58l-.17-2-1.92,1.92.25,1.92.67,2.17-2,1.83L448.62,360,447,358.33l-3.5,2.33,1.17,3.67,2.5,2.5v1.33l3,1.5,1.92,1.92,1.08,2.58v2l-2.83-2.67-2.58-2.58-2.58,1.58-2-1.67-3.5-2.67V361l3-3,.67-4.33v-4.83l.83-3.5h-2.67l-1.17,2.5,1.17,2.83-1.33,3.5-2,3.17h-3.5l-4.17,4.17-2.67,2.67,2.42,2.42-.42,3.42,1,3.17,1.17,3.67-3.33,3.33-1.5,4.33-2.33,3.67.5,5.33-2,2,.5,3.17h3l1.33,1.83,2.5-1.17,1.92-1.92,2.33,2.33,4.08,1.42,1.33,1.33,2.17,2,1.67,3.33L443,410.5l1,3.17-1,2.17-2.67.83.33,3v2l1.42,1.42,3.75,1.08v2.33l-3.83-.83-3.33-3.33v-2.5l-.17-4,2.67-2.67-2-5.17-1.58-1.58-1.08-3.25-3.83.5h-3.5l-2.25,2.25-2.25,2.25.33,3.17.83,3.5-1,4-2.08,2.08-2.58,2.58-1.5,1.5v3.5l-3.33,1.83-4.17,1.17-1,1H408s-2.42,1.08-1.75,1.75-.58,2.92-.58,2.92h-3l-2-2.83-2.83.17-3.33-2.33L392,431l-2.5-3.83V424l2.5.83,1.75,1.75,2.75,1.75,2.5-1.67,4.17.83,2.33-1.33,2.5-3.67,4.33-4.33,3.67-1,.67-6.17,3.67-2.83.5-2.67-2.92-2.92-1.25-4.42L418,395l1.83-6.33L421,381.5l3.33-5,.83-4.5,1-5.67-2.83-2.5,1.33-4.33,4.75-4.75.75-6.08,1.67-1.67-1.5-5.67h-3.5l-2-2h-4l-2-2.83-3.17,1.67-1.83,4-1.67,4L410,351l-2.83,2.83-1.25,1.25-3.58,1.75L399,358l-1.83,2.33L396,363.67l2.17.67v2.5l-1.5,2-.83,4v2.67l-3.33,1.67-1.58,1.58,1.75,3.58,3.17,2.17-.67,4.67L397,393.5l2.67.83-3.83,3.5v3.5l-3.33,2-2.33-3.67v-3.33l-2.83-3.83-2.67-4.17-3.92-3.92-1.31-2.67-1.36,2-2.62,2.62,1.63,1.54.33,1.25,1.25.42v5.67H377l-.75,1.83-1.33.67-.25,1.83-.25,1.25,3.33,1.67v2.17l-3.08,1.25,2.58,2.58-4,2-3,3h-3.17L366,417.17h-5.67L355,418.33l-5.33,3V425l-4.37-.17-3.24.5-1.75,2L337.13,429,334,432.08l-2.87.38v-2.62l-2.12-.75-2.56,2.56L323,435.08,321.5,438l.63,3.63-4,2.5-.37,3-3.37,2.13-2.25,4.25.63,2.87L311.38,459v2.25l-4.12,4.12-.56,2.94-1.56,1.56-.87,2.38v2.62l-3.37,1.75V480L299,484.58l-3.37,3-2.5,3.75-2.25,2.25H288L285.25,496v4.25l2.13,3.37-1.12,3.75L284.57,509v1.19l1.81,1.88-2.06,2.06-2.06,1.69-2.87-.62-3,2,.13,1.63,1.31,1.31L276,522l-1.25,1.25-2-3H270.5l-1.75,2.87-.75,3.12-2.75,1.38H262l-1-1-1.12,2.25v2.88L258.57,533l-2.18,2.42,2.14,3,3.87,2.8h2.39l2,2.88,2.12-2.12.68,2.79-.76,2.54-2,3.72v2l-3.76.89-2.24,2.24-3.47-1.27v-2.28l-1.86-1.86-2.7-1.35-2.54-.76-3.64,2.71.68,3.21,1.61,1.61.51,4.48,2.11,3.38,4.14.42,1.77-1.18,4.06,1.27,1.18,3.63v3.21h-1.94l-1.18-1.61-2.79.25v1.18l-2.58.89-3.42,3.42v1.86l-2.2,3v2.88h-1.78l-2.28,4.14L244,589.8,241.4,591l-1,1.77h5.92l1.94-.76,2.7,1.18h1.69l1.18,2.11-.84,2.11-3.13,1.52.25,2.11h1.77l.5,2.62,1.33-3.5L257,601l2.83-.83,1.17-3L259.88,593l2.83-1.17,4.33-.17,2.83,2.83h2.33l2.08-2.08L272,590.17l-1.83-1.83-1.83-1.17,2.33-2.33-1.17-2.5,1.17-3.67h3.5l3.83,2,2.67,2.33,3-.83ZM452,351.1l-1.66,1.66-1.81,1.51,1.66,1.21,1.36-1.21h2.12l2-1.82-1.81-1.81Zm-5.44-16.79-1.36,1.21.91,1.36,1.81-1.21,2.27.6-.61-1.36Zm-7,6-.76,2,1.21,1.06,1.36-1.66Zm-16.18-9.83-1.66,1.21.61,1.36-1.21,1.66.3,1.06,2.72.76,2.57-1.21,1.51.15V334l-2.42-.6L427,332l-1.36-2-1.66.6Z" transform="translate(-12.54 -94.83)"/><path id="Siberia" class="cls-1" d="M625.84,466.22l-.1-2-2.45-.16-1.82,1.82-2.29-1-3,1.14-1.46-1.77h-1.56l-1.35,1.35h-2.71l-1.77-.83v-3.33l1-1v-2.19l-.83-2.5,2-3.12,1.14-3.23-3.44-3.44-.94-4.58-2.92-1.56v-2.91l1.15-1-1.15-1.15V432l-3.12-1.25-.94.94-.94-2.81,1.56-1.56,1.66-2.71,2.5-.73-.94-6.45-.73-4.16V411l-2.91-5.31-.31-5.52-2.91-2L595,395.33l-.9-2.24v-1.37l3.5-1.37,3.62-5.12,2.5-.75,3.37,1,1-2.25v-2.75l-1.87-1.87.88-3.25,2.5-.87v-2.62l-.12-3.37,2.75-1.87,3.19-3.19.69-2.31h1.38l-.25-3.37h-2.62l-2.37-4.5v-4.12L610.13,347l-4.5-3.25V342l-3.37-1.25-1.18-2.49.57-3.35-1.42-1.42-1.48-2.23-.75-1.93,1.15-1.21.33-1.6-1.33-1.06-.43-2.93h-2l-2.5.17.17,2.67-.17,1.33,2,.17,1.25,1.25-1.58,3.08-2.67,1-2.83,2.33s-.5,3-2,3a19.15,19.15,0,0,0-4.17.83l-3,1.83.67,3.33-3,1.33.83-3,.67-4.33,2.75-2.75,1.25-3.75,4-1,1-5.17,2.5-2.5,1-4.67V316l3.33-4,1.92-1.92,1.58-3.25,1.67-2.33v-3.33l1.92-1.92-2.08-3.58-3.33-1.83-1.33-1.33,3.33.67.33-3.5L597,287.42l-1.75-1.75L594,287l-2-1.67L590.38,282l-1.92-1.92-2.58,1.25L584,279.42l-3.42,2.42h-3.33l-3.67,2,1.5,1.5-.83,2.83a15.78,15.78,0,0,0-3.67-1.17c-1,0-.83-2.17-.83-2.17l2.17-2.17-2.42-2.42h-3.25l-1,1-5.29-.29,2.17-2.83,2.58-2.58-.75-3.42-2.5.33-3.33-2-2.67,2.83-3,2.17-2.5,6.17-.83,2.67v4l1.33,1,.33,2.83h-1.17l-3.83,1.17H542l1,1.83,2,1.5,1.5,2-3.33-.67-3.33.67-.5,2.67-5.17-.17-2.08,2.08v-2.42l1.58-3-3,.5-.83,1.83-3.67.5-4.33,1-1.67,1.67,3,1-1,1.17-4.5,1.33-1.58,1.58-6.25.92-1.75,1.75-4.58,1.75-1.83,3.83L497,316.5l.17,2.5,2.33.17L497.21,321l-1.67,2.33,1.42,1.42-.92,2.08,1.33,1.5-2,.5s0-2.5-1.25-1.25l-1.92,1.92,1.67,1.67,2,.67,1.67,2.5L495.88,336h-3.17l-4.33,1.83h-6.5v1l-4-1.5H470l-3.33,3,.83,4.17,1.33,1.33-1.5,3.33-1,4,1.33,1.33,2.33,3.83,3.17,1.17-.17,2.33,1.83,2.5-.67,2.67h-4.5l-2.92-2.92L465.71,363l1.17-3.33-4.33-2.33-2.25-2.25-2.75.42-3.33-.67.17,2H456l.67,1.83,1.42,1.42,2.08.42,2.33,1.25.58,2.17-1.58,1.58.33,1.75-3.17.5L456.34,370l1,2.21.67-.92,1.08,2.08,3.58,2-.33,4v5.75H459l-1.25,2-2.46,2.46-3,2.29.17,3.08,1.46,1.46.46,1.79,2.08,2.08,3.17.5L460,403l1.08,1.08,2-1.75s.73,1.27,1,1,2-1.92,2-1.92l-.08,3.25,2.58.5v2.58l1.58,3.83-.92,2.42H468l1.33,2.5-1.08,3.17-1.79,1.79-.62,2-2.33-.5-.08,2.67,1.63,1.62.54,3-1.42,2.5,1.5,1.5v2.33l3.67,2.17,1.42,2.92-2.25,2.08v1.67l1.17,2v3l-1.5,1.17L470,455h2l2,2,1.5,3,.33,3.83-1.67,1.67L475,469l3.83.83,1.92,1.92,1.92-1.92.67,4-.67,3.5,1.17,2.67-2.25,2.25-2.42,3.08-1.67,3.17L480,492v4.17l-2.42,2.42-.25,3.75L476,503.75,472,507.67l.05,5.12,4.21,2.77,4.72,2.05-2.46,4.11-6,2.57-3.8,3.8-6.16-4.51-6.57,2.77-1.23,4.11-4.41-2.26-3.18.82-3.85-3.85-4.16,1.59-5.34-.62L432.48,524h-5.75l-4-1.74-5.34.82-3.9,8.72.31,5.23-5.54,1.54-4.52,3.29-.51,3.49-4.72,2.76-1.5,2.12-2.69,2.69L391,554.46h-4l-2.5-.75-2.87-1.5-1.12,1.62h-3.37L375,552.46l-1.87-.87-2.87-.87L368,550v-2l1.62-1.62L367,543.71l-2.5,1.75-1.16,1.93L361,550l-.25,2.62,1.13,3.38-2.62,1.25v1.88l2.25,1.13,1.56,1.56.81,1.94,2.5,1.37v2.25l-1.19,1.19-3.19.56-4.19,4.19v2.94l-.69,1.75-1.75,1.75L354,580v2.25l-1.69,1.69-.94,1.94v2l2.5,1.17,1.33,4.17-.83,2.33v3.17l-2.08,2.08.92,2.92,3.67,1,3.33-2,2.42,2.42L361.54,609l3.33,1,1.83-1.83,3,1.83H373v2.33l-4,1.83-1,4.5h2.83l3.5-1.67,1.83,2.67,4-2.17,4.67-1.33,2.75-2.75,2.58-.08,3.5-.17,2.5-2.5h3L400,613l-2,2.67h-2.33v3l2.83,1.17,2.08,2.08,1.92,4.08,1.83,1.83,2.83,2.83,2,6.67v5.5l2.67,2.5v4l2.83,5,.83,4.33,1.17,3.83,2.17,4.33,3.67-.67,1.83-3.83,2.67-.83,1.83,2.17v2.5l1.83,1.83,2,2,3.67-.67L438,671l4.17-.67,2.08-2.08h4.25l2,2,3.12,1.37,2.33,2.17.67,4,2.83,1.83,1.33,3,3.5,2.17v4l4.5,1.17,4,1.33,4.33-1.67,2.58-2.58.92,3.42,1.83,3.33,1.5,2.5,4.83.83L491,695l4.17-2.33,5,.17,2.75-2.75,3.92-.92.67-3.5h3.33l3.33-3.33,5.5-3.5H524l1.17-3.5h3.67l2.92-2.92,3.58,1.58,2.83,2.83,4.5-1.83,3.83,1.17,3.17,3.17,2.67,2.67,4.83,1.67,3.33,1,4.67-.83,4.5,1.17h8l3.75-3.75,3.92-2.58v-4l-2.92-2.92V668l-2.08-2.5.67-4.33,2.25-2.25,2.08-4.25,2.58-2.58,1.92-1.92,3.83,2.83h6.5l3.25,3.25,4.75-1.25h4.17l4.33,1.67,3.08,3.08,2.42,5.08,2.58,2.58,4.08,1.75,6,.5L639,668.5l4.33-1,3.92-3.92H652l7.67-1.08L662,664l5.83.83h6.33l2.33,2.33,1.33,2.5,4.5,1.5,5-.67h6.83L699,669h5.33l2.08-2.08,4.08-4.08,5.33-2.5,3.83-2.67,2.92-2.92,1.42-4.92,6-6,4.17-1.83,3.17,1.17,3.5,1.83,4.67-2.67,3.33-2,4.5.83,6.17.5,5.5-2,3.25-3.25,2.25-5.25,3.5-1V625.5l-1.5-1.5-2.5-4.83,1.83-4.67V610l1-7.17,1.33-2.83-1.33-5.33-2.33-2.33-2.08-2.08-2.58,2.08L764,590l1.33-3.33,1.83-5.5,2.58-2.58L775,575.5l-2.41-4.16-1.08-2.17h-2.83l-.83-3.58-1.42-2.17,2.5-1.5v-1.17h-1.33l-2.25-2.42-1.83-.25.42-4.25-1.08-1.92-1.17-3.25L759,547.33,757.13,550l-2-.75-.17-2.83-1.33-1.33-2-.54-2,2-1,2.5-3.42-.92-1.08-2.08,2-2.5L745,541.67l-2.25.75-2.92-.75-2-2,0-2L735,536.9V534l-2.5-.83-2.6-3.44-3.64-1.35-.78-3.8-1.72-1.72.57-1.82-4.74-4.74-1.35-3.75-2.08-.21v-2.4L714,507.49l-1.82-1.82h-2.66v2.55l-2.34,2.34L703.5,510v-2.39l-1.56-1.35v-3l-3.23-.42L695,501.09l-3.54.42-3.54-.52-2,2.39-1,3.28L682.58,509l.94,3.23L682.26,516l-3.12,3.12v5.83l-4.37,3v3.44l-1.87-2.6v-2.92l-2.19-2.19-2.08.94-.52,2.71-5.52,2.08H660l-1,3.12-1.67,2.5-3.59.26-4-4-.42-8.33.52-5v-4.69l.63-4.16V505l-2.91-1.25-2.08-.73-.31-2-1-2.26-1.9-1.9v-2.24l1.3-1.3.36-3.07-1.82-1.82h-2.39l-2.6-1.25v-2.4l1-1L637,482.67,636,479,634,475.27l-2.5-1.77-2.81.83-2.71.21v-3.23l2.24-.62v-2.13ZM569.8,274l-.61.91,1.36.91.6-1.06Zm-6.5-13.46-1.51.91,2.12,1.06,1.51,1.06,1.66-.45-.45-2-1.66.45Zm-14.82-7.41V251l.15-3.78-1.06-2.12-1.51.15-2.12,2.57.15,2.27-.91,1.51.61,4.08L542,257.48l.15,4.08-.91,3.48-.76,3.48,1.36.76,2.87-2.27,1.66-1.06,3.78-2,3-.3,3.78-2.87,1.81-3.48-1.21-3L556.18,252l-1.81.76-1.82-3.18-1.36-1.36-1.66,2Zm-13.61-16.18-1.36,1.66-1.21,2.27-1.06-.45.76-2.87v-3l-3.33,1.06s-2,.45-2.42.6l-2.72.91-1.06,2.27-.61,2L520.49,243l.45,2-2.57,2,1.21,1.06,1.81-.6,1.51,2.12.15,2,1.36,1.66,3.48.3.45,2,2.42-1.51,1.21,2,3.33,1.21,3.18-1.51,1.51-2.12L538.79,251l-2-2.72,1.51-1.06.6-2.57-.76-2.87.3-2.87Zm-2.72,46.28L530.62,285l-2,.45,1.81,1.36,1.82-1.81Zm-25.26-.6-.76,1.21,1.06.91,1.36-2ZM491.3,324l-1.82.91a13.46,13.46,0,0,0,.76,2c0-.3,1.36-.6,1.36-.6Zm-13-13.61-1.66,1.36.91,1.82,1.51-.3Zm-.61,19.81-.3,1.66H480l1.36,1.36.15-2.27-1.51-.3Zm-8.77-89.69-.91.91,1.06.6,1.66,1.21.45-1.51ZM459.69,346l-1.06,1.36.6,1.82,1.06,1.36,1.51-1.66.61-2L461,345.51Zm21.94-125-1.25.25-.81.81,1.25,1.25,1.69-.56,1-1Zm28.62-2.5-1.12,1.13.88.87.94.94,1.94-1.81v-1.25Zm12-1.62-.37,2.5-2.25,1-3.37,2.25v3.12l1.38,1.38-1.81,1.81-1.19,2.31,1.62,2.25.63,2.25,2.87,2.5,2.63-2.5h1.75l2.62-1.5,3.13-1-.87-3v-3.75l1.87-1.62-1.56-1.56-3.19-3.19-1.12-2.5Zm-7.37,20.75-2.12-.25.38,2.75v1.75l2.75.75,1.13,1.13,1.69-1.69.94-2.44L518,238.33Zm-33.37,64-.81.81,1.06.94,1.75-.5Z" transform="translate(-12.54 -94.83)"/><path id="Far_Eastern" data-name="Far Eastern" class="cls-1" d="M737.75,537.64l-2.7-.72V534l-2.5-.83-2.6-3.44-3.64-1.35-.78-3.8-1.72-1.72.57-1.82-2.55-2.55-2.19-2.19-1.35-3.75-2.08-.21v-2.39L714,507.5l-1.82-1.82h-2.65v2.55l-2.34,2.34-3.64-.52v-2.39l-1.56-1.35v-3l-3.23-.42L695,501.1l-3.54.42-3.54-.52-2,2.39-1,3.28L682.58,509l.94,3.23L682.27,516l-3.12,3.12v5.83l-4.37,3v3.44l-1.87-2.6v-2.92l-2.19-2.19-2.08.94-.52,2.71-5.52,2.08H660l-1,3.12-1.67,2.5-3.59.26-4-4-.42-8.33.52-5v-4.68l.63-4.16v-4.06l-2.91-1.25-2.08-.73-.31-2-1-2.26-1.9-1.9V494.7l1.3-1.3.36-3.07-1.82-1.82h-2.39l-2.6-1.25v-2.4l1-1L637,482.67,636,479,634,475.28l-2.5-1.77-2.81.83-2.71.21v-3.23l2.24-.62v-2.13l-2.34-2.34-.11-2-2.45-.16-1.82,1.82-2.29-1-3,1.14-1.46-1.77h-1.56l-1.35,1.35h-2.71l-1.77-.83v-3.33l1-1v-2.19l-.83-2.5,2-3.12,1.14-3.23-3.44-3.43-.94-4.58-2.91-1.56v-2.91l1.15-1-1.15-1.15V432l-3.12-1.25-.94.94-.94-2.81,1.56-1.56,1.67-2.71,2.5-.73-.94-6.46-.73-4.16V411l-2.91-5.31-.31-5.52-2.91-2L595,395.33l-.9-2.24v-1.37l3.5-1.37,3.62-5.12,2.5-.75,3.37,1,1-2.25v-2.75l-1.87-1.87.88-3.25,2.5-.87-.12-6,2.75-1.87,3.19-3.19.69-2.31h1.38l-.25-3.37h-2.62l-2.37-4.5v-4.12L610.13,347l-4.5-3.25V342l-3.37-1.25-1.18-2.49.57-3.35-1.42-1.42-1.48-2.23-.75-1.93,1.15-1.21.33-1.6-1.33-1.06-.43-2.93,2.83.67,3.33,1.33.67-2,2.08-2.92,1.75,1.75v3.33l2,2.83h2.33l-2.33-2.17,1.58-1.59,3.08-3.08,4.17-2.17,6.33-1.17,5-1.5,1.25,1.92-1.17,1.17,2.75,2.75h5.17l.17-1.33.5-1.83,2,3.17,3.5-1.33,3.5-3s3.67-.67,4.5-.67,0-3,0-3l-.5-3.33-2.5-3.83.67-3.83.5-2,2,2,2.08-1.58,1.75,1.75,2.67,1.83.67-2,1.33-.33,1.33,1.5,1.33-1s-.17-3.08,1.08-3.08,1.58-1.58,1.58-1.58l3.67,2.83,1.17-1.17,4,1.33-1.33,4.08h1.92l1.92,1.92v3.17l3.17-2,1.67,1.67v3.67l-2.17.67-1.33,1.33,2.33,2.33s1.83-.83,1.83-1.67,1.5,1.5,1.5,1.5v2.67l3.42-.08,3.25,3.25,2.5,1.67,3.5.67,1.5-1.5,3.83,2,.33-3.17-1.67-5.5-1-2.5V313l-2.17-2.17v-3l4.17.5,2.33,2.33,3.67-1h4.17l-.83-4.33,2.33-4.33,4.33-1,3.17-.17,3.67,1v-2.5l-3.92-1.75,1.42-1.42,1.83-2,3.17.17,2.5-2.5-1.17-.67-2.5-2.5-2.83-1.5V282.5l-1.17-1-1.67,4.33-2-1.33V281l3.67-3.33-.5-2.33-3.5-2.17L721,271h3.17l4.67-2.33,1.33-3.83,6.17-2.33,4.83-2.17a2.55,2.55,0,0,1,.67,1.67c0,1-3.17,2.17-3.17,2.17l-1.17,4.5,2.83-1.33,2.5-2.5,3.17,1-.83,6.5,2.83-2.67V266.5l-1-5.33.67-2.33,1.5-4.17,3.5-1.67,5-2.17,3,2.17a33.54,33.54,0,0,1-2.5,3c-1.08,1.08,1.17,1.83,1.17,1.83H763l2.33-2.67s2.67,2.83,3.17,3.33-.5-3.83-.5-3.83l4.5-2.5,3.17,1.67,3.5-.17,3.17-3.17,3.33-4.17V241.5l4.17-6.17,3.5-3.5,3.17-3.83,5.5-.83,4.58-.25,2.25,2.25,4.67,4.67,4.17-1.83,3-2.42H824L822.38,228v-2.33l3.17-3.17V217l1.5-2.83h2.5l2.17-2.17v-3.33l4.17-3,1-4L835.21,200l.67-2-2.33-3.33,1.83-3.33,1.75-1.75,3.17,3.17-2.42,2.42,2.5,2.5h3.83l2.67-1,3.67-1.67,3.33-.83.83-2.67-1-2.67-1.83-.33-5.67-2.5-4.17.67-1-2.33h-3.33V182.5l.83-3.17,3-1.5.33-3.5,2.67-1.5h2.33l-1-2.83,1-3,2.83-4.17L851,158l5.08-4.92,5.67-5.67,2.58-2.58,5-2.17,3.58-2.08,3.33-3.33,3.42-3.42,4.17-1.67,3-4.33,5.67-1.67,3-3.17,3.67-1.67,2.33-1.33,2.67,2.67L908,121.5l3.42,2.58,2.25-2.25,4-2.17v-2l-4,.83-4.67-.33-3-.83,1-3,3.17-2.17-2.67-.67V110l1.83.17.33-3,1.67-2.33,2.33-2.33,4-1.5h1.17l3-4.17s2.83-.83,3.83-1.83,0,2.83,0,2.83l2.17,1.83,1.67,1.67-1.83,3.83s2.5,0,3.5-1,0,2,0,2v3.5l-3.83,2.5,3,.5,1.83-1.83,3.92,1.5v-1.75l3.08,3.08,2.17,3.33,1.83-.5,1.83-2.33v2.17l1.17,2.67h-3.5v1.33l2.83.83L944,125.5l-3.83.33-3.5,3.83-1.83,4-3.5,1.17-2.5-1h-3.17L922.88,138l1.25,2.5v4.25l-2.75,2.75-2.17-1.67L917,147.5h-3.17L912,146l-1.67-1-.25,1.58,1.25,1.25-1.5.67-1,1,2.92.5v2.25L914,154.5l3.67-1h2.5l.17,3.17,1.5-1.5,2.58,2.58,2.75,2.75,1.33,4.83.67,3.83-2.67,4.33H924l-3.5,1.5-1.17,2.67,2.83-1.17H924l-2.67,3.17,1.67,1.67,2.17-.83v-3.17l2-1.5,3.58-.08,2.08-2.08,1-1.67,2.5.17,2-.33,3.67-.17V174h3l.83-1.58h2.92l1.75-1.75,2.17-.33,1.83,1.5,2.67-2,1.25,2.92,2.42,2.42v3.5L957.54,180l-2.17,4.67h-3.5l-1,1.5,3.92,2.58L953.54,190l2.83,4.33,1.17,5.33v6l1,4.67,1.67,4,.83,5.33,1.67,5.17,3.17,2.83v4.83l1.67,6.67,2.83,3.17,1.83,1.83-2.83,2.5-3-1.5-4.17,1.33-2.17,5-3.5,5,1.83,1.83L957,263v2.5l2.83,4.33v2.67l-3.17-1.5-2.33-2.33-2,.17,1.83,4.83v3.17l3.08,1.42-3.08,3.08h-2v4.33l-1.83,1.83,2.5,4.17,2,2,2.33,2.33,3.17,3.17.67,4.67.5,3.67,4.58,2.42,2.75,2.75h4.67l-1.25-2.83v-1.42l1.58-1.58,1.17-2.5,4.33,4.33.83,3.83,4.33,3,4.29,1,1.71-1.71h2.75l3.25,3.25-1.33,3.17-3.33,1,1,4,3.5,5.83,3.08.75,2.42,2.42,5.67-.67,3.33,2.67,1.17,3-2,1.33-2.83,1.83-1.67,3.67,1.17,6.67,3.33,5.17,2.92,1.08,1.42,1.42,4.83,1.17v2l-3.67.5v3l-1.33,3,1.67,6,2.83,1.17,4.33,4.33,3.17,3,.67,5.33,1.67,7,.83,4.5v3.33l-1.83-2.5h-4.83l-3.08-1.58-2.42-2.42h-3.33l-3-3L1005,393.5l-5.5-2.33-6.33-3.33-1.83-2.5-3-2-3.33-.67-7.17-2.17-4.67-2.5-4.5-3a22.25,22.25,0,0,1-2.17-4l-4.83-4.82-3.33-3.5v-3.5L956,356.84l-.5-3.83-2.83-4-3.08-.67v-1.42l1.42-1.42,1.17-2.5-1.58-2.75,1.5-1.5,1.25-1.25-1.67-5-.83-5.33-2-6.17-3.17-4.17-1.33-5.5-1.5-5.17L941.21,302l-2-6.17-2-1.67-.17-3.33,1.17-4v-5.17l-2-2L934,275.51h-2.17l-2.08-.75-1.92-1.92-2.33-3-3.5-2.17v-3.83l3.17-3-1.08-1.08-2.58,2.58-3.67,2v3.5l-1,2.67,2,1.83,2.92,2.92,2.75,2.75h3.33l-.33,2.17L926,280l-1.58,2.25,2.08,2.08v5.33l1.67,4,.33,6.33-1.17,3.83L926,300.5l-3-1.5v4.17l-2.5-2.5L918.88,299l-1.33-2.83-4.67-4.33,1.33,3.67-1.33,4h-4.5v2.67l-1.5,5.5L905,309.84l.17,7.33,3,2-.5,4.67,3,4.67v5l.92,6.58,2.75,2.75v3l2.33,2.33,2.17-.33,1.92-1.75,1.42-1.42h2.5l-.17,3.17-2.67.83v4.5l-5,.83,1.17,5.83-.5,2.5-3.17,1.33v3.5l-1.17,3.17s-3.92.92-3.17.17-1.5-1.5-1.5-1.5v-2.17l.67-2.17,2.75-.92-1.25-1.25-3,1.17-3.17.5v1.5l-4.67,2.17-2.33,2.83-2.67.67-2.17,2.17-.83,2.5.83,3.17,1.83,1.83-2.17,2.33-3.5-1.33,1.08,3.58-2.58,2.58L885,390.33h-2l-2,1.83,1.33,2.17,1,1-2.83,1.83h-3.83L873,400.92l-2.42,2.42-2.67,4.5L865,410.67l-2.83,5.67-.5,5.5,2.67,5.33-2.5,2.5L861,435l1.5,3.83,2.33,2.33-2,3.33V455l-1,4.17v5.67l1.67,1.83v8.5l-1.5,5.67v4.67l-2.5,4.17v4.17l-1.33,3.67,1.5,3.38h2.54l2-2H867l2.17-2.17,2.42-2.42,1.67,1.67,2,1v2.17l1.58,2.92,2,2,1.75-1.75v-2.67l-2.33-1v-2.5l1.83-2v1.67l2,1.5,1-.33,1,1v5.17l3.33-1.33v-1.67l1.83-2.5,1.17-1,1.83,1.33.42-2.75L891,493.67l-1.5-2.83-1.83-3.33,3-1.67,1.83-1.83,3.67-.83h4.33l3.58.42,1.58,1.58s3.83-.67,4.67-.67a14.22,14.22,0,0,0,3.17-1l2.08,2.08L914,487.17l-1.17,1.17-1,1.83h5.83l.67,2.17,2.5,2.5,3.08-.42,1.58,1.58,1.67,3.17.5,6.33,2.17,6.67,3.42,4.92,4.25,4.25,1.67,1.67.83,2.83,3.33,3.33,2.33,4,.83,2.33,3.08,4.75,2.58,2.58v7l-1,6,1.83,6-.17,6.17,1.83,4.83,1.33,5.33,1,4.83,1,6.5v6.33l-1,3.33v14.5l-1,6,1,6.17-.33,8v3.83l-3.33,5.5-2.17,4.67-2.5,4.67h-2.17l-4.17,1.67-3.5,2-2.42-1v-2.25l-1.25-1.25L934,654.5v3.08l-1.42-1.42L930.38,654v1.67l-.67,4.17.67,2.83-.92,3.25L928,667.33v4.33l-3.17-.17-1.33-1.33,1.17-3.83,2-4V659L925,655.08l-3.58-3.58-1.83-1.83-1.5-3.83-3.17-3.17-3-1-.08-3.25,2.08-2.08,1.83-1.83v-3.33l2.33-2.33,2.67-1.33,2.75.92,2.42-2.42,1.5-3-2.67-4.17,1.33-3.5-1.67-3.67-.33-3.83-2.33-3.17.67-2.67-1.84-3.17-.83-3.66-3.33-3.5,2.5-2.5V585.5l-2.08-2.08L914.38,581l-.67-2.17h-2.83l-4,2.17-1,3.33-2.67,4.33-3,3.83,1.33,4.17L898,599.5l-3.5,2-3,1-.83,3h-3.17l-3.17-1.83-2.33-.83V599l-2.67-2.33-2.16-2.17-3.59-.92-1.92,1.92-3.83-1-3.17-.83-4.83.67h-4.5l-1.83,1.83-5,1.83-5-1-2.08-4.08L839,590.5s-2.83-1.67-2.83-2.33S833,585,833,585l-4-.67-1.67-4-3.83-3-2.67-2.67-3.67-1-1.33-3.5-3.33-1.5-2-2-6.67-.67h-3.5l-4,2.17-5-.83-3.83,1.33h-4.17l-5.67,4.17L775,575.5l-2.41-4.16-1.08-2.17h-2.83l-.83-3.58-1.42-2.17,2.5-1.5v-1.17h-1.33l-2.25-2.42-1.83-.25.42-4.25-1.08-1.92-1.17-3.25L759,547.33,757.13,550l-2-.75-.17-2.83-1.33-1.33-2-.54-2,2-1,2.5-3.42-.92-1.08-2.08,2-2.5L745,541.67l-2.25.75-2.92-.75-2-2Zm175.44-69-1.15.29-.86-2.45v-2.16l3.75,1,1.87.87,1,2.31,2,2,3.6.72.87,2.31,4,2.6h2.16l1.73,2.45,1.44,3.89,2.24,2.23,4.25,4.4,2.74.72,3.75,1.44,3.61,3.17,4.9,2.74,3.17,2.74,4.18,2.16,3.6,2.16,2.31,1.87,4,1.59-.58,1.87L970.44,511l-2.74.87h-2.16l.58,3-.58,2.16v1.73l2.45,3.75s2.31,2.59,1.88,3,.14,4.47.14,4.47l1.87,1.88,2.88,2.88,2.45,1.59H981l2.16,2.16h2.45l1.3,2.74,3.17.14,1.95-1.95,3.39,1.95,2,2.6s.72,1.73,0,1.73-4.62-1.87-4.62-1.87l-1.66,1.66h-3.68l-1.15,3,.72,2.88,2.31,2.31,1.73,3.75-2.31,1.88L986.88,557l-2.45-2.45-4.33-4v-2.74l-2.88-2.88-2.74-2.74-1.87-2.45-2.31-4.47-2.88-2.74-3-1.73-2.88-.87L959,524.74l-5.33-7.35-4.33-4.33-3.6-3.6-3.17-4.33-2-3.32-5.48-2.45-4.33-1.87-2.6-.29-3.46-4.76v-2.16L921,486.53l-2-3.75-4-1.3,1-2.88v-2.16l3.32,1,.58-2.88-1.95-1.95v-1.08L916,469.62ZM1035,543.92l.58,3,.29,2.88,1.15.43V548l.87-1.87v-2.6Zm10,1.73v1.3l1.88,1v-2.16ZM1039.08,534l1.73.72.58-2.31-.87-4.61,1.59-1.59-.29-3.32-2.45-.72-.72,3.75.94.94-.79,2.81Zm4.33-19-.72.72.58,2.45,1.15-1.73Zm1.73-8.8.72-3.75-1-2.31.58-2.45,1.95-1.95.5,2.67-.43,2.74.58,3.17-1,2.31ZM1047,474v5.77h2l-.58-2.45v-3.46ZM963.09,287.81V291l-.29,2.88,1.73,1.15,1.15,1.44.14,2.59,2.31.87-.58-2.59-1-2,1-3.32v-4l-2.74-1.15ZM1019.18,303l-2,.72,1,2.16h6.92l2.16-2.16-2.74-.87-2.74,1.15Zm10,106.28-.87,2.6-1.37,1.37,1.59,1.59.94,1.95-.29,2.6-.14,3.32,1.51,1.51,1.66-.94v-3.46l1.51-1.51-1.23-3-2-2,.14-2.6Zm6.2,22.49v2.16l1.44.72,1-1.3Zm-3.89-136.27-1.87,1.3,1,1,1.37-1.37,1.37-1.37ZM840.6,122l-1.32-.5-1.16,1.21L835.58,124l-2.07,2.07.19,3.56-.88.88.44,2.87,1.65,2.43,1.71,4,2.65.55,1.79-1.79,1.35-2.45-1.49-1.6,2.21-3.2-.39-3.47v-4.13Zm32.5,361.5-1.44,1.59v4.18l2.45-1,1.3,1.3,1.44-1.44.58-2.89-1.59-2.31ZM708,226.92l-.3-1.21,2.27,1.06,1.13-1.14,1.59-1.59,2.34-2.34,1.44,1.74h.76l1.89-1.89,1.74-2,3.33-1.51,2.42,1.81-1.36,3.78v2.12l-1.59,1.59-2.5,1.14-2.72,1.06h-2.72l-2,2-3.25-1.14L708.8,228Zm-5.6,3.18h-4.84L696,231.69l-2.5,1.74-1.82-1.81L687.33,233l.3,2.72,1.13,1.14,1.66,1.66,1.13,1.13L689.9,241l-2.27-2-1.21,1.21-1.66-1.66-3.78.76-1.66-.91-.76,2,1.21,1.21-2.27,1.21v2.87l1.82,1.82-.46,2.12h1.66l2.12,2.12-.61,2.42,2.72,1.36,3.63.15,1.51,1.51h2.72l3.18-.91v-2.42l-2-1.81,1.06-1.06,1.59,1.59,2.8-5.07,2.65-2.65,1.13,1.13,2.42-2.42.76-2.27-2.72-.91-1.81,1.82-2.27-1.66-2.72-1.66-2.72-2,.91-2,1.44-1.44,1.13,3.86,1.74,1.74,2.95.53,1.82-.76h1.51l1.51-1.51-.76-3.18h-2.42l.61-2.72v-2ZM705,256.72l-1.36,1.21,1.06,3,1.74,1.74,1.44-2.8v-2.27l-1.06-1.06Zm6.2,2.72-1.74,1.74,1,2.34,1.66,1.66-1.06,2.42.91.91,1.36-2.87,3.48-.76,3-1.21,4.08-2.42-2.12-3.93h-2.87L714.85,256,713,257.71Zm-34-6.5-1.36-1.36-2.42-.15L675,253l1,3.55h2v-2Zm-75.63,58.84-2.8,2.8v1.89h2.34l.76,1.81,2-.91,2.27-2.27v-3.63h-2.87ZM700.18,205.3l-.91,1.66,1,1,1.13-1Zm-8.47,66.1-2.87-.61-.91.76,1.66.76,2.12,1.66.91-1.21Z" transform="translate(-12.54 -94.83)"/><path id="Northwestern" class="cls-1" d="M196,302.17l.42-3.08,5.08-5.08H210l2.67-4.67v-9l5.33-2.67,7-3.5,4.83,1.83h2.83l2.33,2.33,2.86-2-.7,3.5,2.83-.33,4,.17v2.67l.83,3L243,284.17l-1.92-1.92L239.38,284l.83,3.17v3.17l2.83,1.5,2.17,2.17v3.5l2.42,1.17v3.92l2.75,2.75,1.33,4.67v4.83l-.83,4.17,1,2.33.08,5.08,2.92,2.92-.17,3.67-.67,6-2.92,5.08-4.42,4.42H242l-5.17,1-4.5-1.67-4.92-2.75L224.38,342v-4.5l-3.17-3.17-1.5-3.5-1.17-3.33-2.17-3.67-1.17-6.17-2.33-1,.75-3.75,1.92-1.92-2.33-2.33-1.08,2.92-1.58,1.58.67,3.67.08,4.25-1.83,1.83,2.42,2.42-.67,3.67-2.33,5.17-4.08,1.25-3.25,3.25-1.25,5.92-3.08,3.08,2.5,7.83-2.42,4.25,3.42,3.42,3.67,3.67,4.17-3,.83-4.17-2.17-2.17.33-3.67V351l2.83-3h2.83l1,7.5.92,4.92,2.92,2.92,1.83,3.83,4.75,1.42,1.42-1.42-1.17-2.83,2.83-2.33.17-5.83L233,357l4.83-1.83,4,2.17,4.5-1.42h3.08l1.92,1.92,2.83,4.33-2.33,2.33v3.67l2.08-2.58,2.92-2.92,4-.83,3.33-4.83v-4.17l1.33-2.83,4.33-2.17v-2.67l4.17-2.5V338.5l-.67-4h2.83l.92,2.08,3.75,3.75,2.83,4.33v5.83l-1,3-1.5,1.5-2.5-2.5-3.5-.83-5.33,1.83v4.33l1.33,4v3.33l3.83,1,3.67,1.67,4.17-2v-3l4.33-1,4.17,2-.67-2.67,6.5,1.17,3.5-.67,6.33.83h3.67l1.83,3.33h1.67v-3l5.33-1.67h2.83l1.17,4.33h-3.17l-1,3-2.5.83,3.83,3.5h2.67l5-2.17,4.75.92,5.17,5.17L340,375h3.5l4.42-1.42,1.75,1.75-.5,2.33-2.67,1.83v2.83l3.17,2.67.25-3.08,1.42-1.42,3.33.83v-2.67l3.17-.5.67-4-.5-4.83,3-1.5,2.58-.75,3.08,3.08,1.33-1.33,3.42,4.25,3.92,3.92,3.17,3.17.78,1.58-1.36,2-1.62,1.63-1,1,1.62,1.54.33,1.25,1.25.42v5.67H377l-.75,1.83-1.33.67-.5,3.08,3.33,1.67v2.17l-3.08,1.25,2.58,2.58-4,2-3,3H367l-1.17,3.67h-5.67l-5.33,1.17-5.33,3V425l-4.33-.17-3.21.5-1.75,2L337.13,429,334,432.08l-2.87.38v-2.62l-2.12-.75-2.56,2.56L323,435.08,321.5,438l.63,3.63-4,2.5-.37,3-3.37,2.13-2.25,4.25.63,2.87L311.38,459v2.25l-4.12,4.12-.56,2.94-1.56,1.56-.87,2.38-5.75-.87-4.25-1.62-3.75-2-3.87-2.62h-1.75l-1,2.12-1.69.56L281,466.58l-1.69-.56-1.69,1.69-3-1.12L272,468l-2.37-2.37L266,464l-2.12.75-1.75-2.12.38-2.12-.87-1.37-2.12-.75L257.88,460l-1.19-1.19L255.5,460l-3.37-1.87-1.56,3.06,1.69,1.69v2l-2.55,1H247l-1.54,1.54-2.48.29-.8-1.83-1.39-1.39-2.63,2.48-1.9-1.9-3.07-1.46-2.92.73-1.17,3.36-1.9,2.34L226,468.84l1-2.34-.73-2.63v-2.48l-1.75-1.75v-2.48l2.19-2.19v-2.19L230,452v-3.36l2-2-.31-2.53-1.5-.75.58-1.83-1.62-1.62-.62-.62-.92-1.5-1.25-.42-1.79,1.54-3.66,3.66-2.27,2.26-3.16-1.4L213.75,445l3.65,3.8L215.06,450V453l-1.1,1.1-3.87-3.43-2,3.22-3.65-.88-1.53,1.54-2.27-3.29-3.36-1.9-2.78-1.32-1.17-3.22L190,441.57l-4.31-.8-2.19-4.68-3.36,1.61-3.66-1.61-4.09,1-3.65,1.61-3.95-3.95V428.2l-3.14-3.14L160,426.66l-4.17-2.85-1.75-1.75-3.07.29-2.05.37v-3.34l.86-2.8-2.37-.75-2.69.54-3.45-1.62-2.8-1.08-2.26-1.08-1.4-1.4-.43,1.4h-2.16l-1.62-1.94h-2.37l-.59-2.43-1.35-1.35-1.83-.92H122.3l-1.78,1.78h-2.8l-1.4,1.4-2.32-.27L112.12,407h-3.56l-1.94-1.19-2.53.16-1.46-1.46H99.72L98.21,403l-1-2.17L94.63,403l-.25,2.08-1.5,1.5-.33,3.5-.92,2-1,1.75H88.29l-1,2.83L85,413.92l-2.83.25V408.5l-2.83-2.67L76.21,405l1-2.5.83-2.67-2.33-2.33-1.5-3.33.5-2.33,3.17-3.17,1.83-3.33-.83-3,2.67-.67,4-2.5v-3.5l1.67-2,4.17-.17,1.83-2.17.17-2.5,3.5-1.33,2.83-3.83,3.83.17,3.33-2,4.5,1,.67-2.5,1.5-1.5,2.83,1.33,2.33,2.5,3.67,1.17,1.33,3,1.33,3.33,2-2-.33-4.83-3-2.67V355l2.67-.67.83-.83-3.67-1.5-2.17-2.5h15.26l22.08-.17,7-2.5V342.5l1.17-11h4.67l4-3.17V324l3-1.17v-5.67l2.67-.17,5.83-4.67,2.83,1.33Zm10.14,41.22-.6.91,1.06,1.36L208,344.3Zm141,2.12h-1.66l-1.82-2.72-1.06.61-3.18-3L337,337.79l.91-2.72,2.42-.76.91-1.51-1.66-1.36.15-3.63-1.06-.3-1.06-2.72-2.27-.15-1.81-2.57.6-3.33,2.42-3.33,2.87.3.91,1.06,1.06.45.45-2,3.48-1.06,2.72-2.87-1.81-2,2.42-1.51,2.72,1.06.76-2.27v-2.27h3.48l1.66,1.66,1.74-1.74.38-1.59,3.78-.76-1.29-1.28-3.25-1.14v-1.21l3.78-1.06,3.93-1.06,2-2h2.57v-1.81l3.63-.15-2-2,3.18-.15,1.21,1.21-.15-3,1.51-1.51-1.66-2,1.06-1.66,1.81,1.81h2.27v-2.27l3.33,1.21,1.66-1.81,1.66-2h2.12l3.63-1.66,2.57.91h3.78l2.5-2.5,2.95.23,1.36,2h3.18l1.51,1.51,2.72-.76h3.78l2.5-2.49,2.95-1.59,3.93-1.51h3.63l2.12,3.33v3.63l-3.18,2.87-2.87,2.72-3.78.3-4.54,2.12-4.08-1.51-2,2-4.69-.15h-6L400.24,292h-4.69l-3.48,2,1.06,2.42-2.42.91-2.87-.3h-2.57l-.3,1.66-2.72-.76v2.72l-2.72,2-2.27,1.66v-2.57l-1.82,1.66.45,3h-1.81L372.79,305v3.71l-1.32-1.32-1.7,1.7-1.44,1.44h-2l-1.51,2-2,3.33h-3.18L357.14,318v2.87l-2.57,1.06-.91,3-2.12,2.12v3.78l-1.06,2.72,1.36,3.93-1.21,3.93L352.3,344l.76,2.72-.91.91-2.57,1.21v-2ZM443.5,196.83l-1.25.38,1,1.38v1.25H445v-2.37Zm-.37,10.62-.87,1.37-3.25.63-2.12,1.13,1.63.75-.75,1.75,1.38.38h2.75l2.19-2.19,1.63-1.62-.56-2.44Zm-10.37-2.25-.69.69,1.31,1.31,2.37-.87v-2h-1.37Zm-1.81,3.94-1.81-2.06-1.37,1.37-1,2V213l2.12.38.5,1.5,2.62-.62,1.69-1.69,1.25-1.25.69-2.06h-1.87Zm-7.44,8.69-.81.81v1.56h1.69l.63-2Zm-3.5-6.37-.87-.87h-2.75v1.87l-1.5,1.5.88.88,3-.62,1.12,1.13,2.63-.62.75-1.75,1.87.63-1-2.25-1.69-1.69Zm13.87-20.87-.75,1.5,1.31,1.31,1.25-1.25Zm-2.75,3.5h-2v2.25l2.13,2.13v1.75l1.87-.87L432,197Zm-12.5,6.5h-1.75l-.37.38,1.44,1.44Zm1.5,2.88-1.19,1.19,1.19,1.31,1.38-.12Zm1.13-5.5v1.63H423l-.37-1.87Zm2.44,4.06v1.44h1.44L424,202.33Zm1.44,3.31.63.63,1.13-1.12Zm1.75-6.62v1.75l1.5.13v-1.87Zm-2.25-3.5.88,1.62.81-.81-.81-.81Zm-16.12,10.5-.94.94,1.62,1.62,1.81.06v-3l-1.25-1.62Zm4.12-2,.63,1.75h1.25V204Zm-7-10L404.38,195v1.37l-1.44,1.44L400.38,196l-2.12,1.12v1.5l-2.62-1.87-2,.75.63,3,1.87-.62v2l2,.5,1.81-1.81,2.56-1.06,2.12.63h3.13l2.25-2.25-2.12-2.12,1.44-1.44-2.44-1.44Zm-7.12-3.12h-2.75L394.13,189,393,191.21l1.44,1.44.56,1.69,3.25-1.12,1.13,1.13,2.12-.87.88.88v-1.87L400.94,191h-1.31Zm2.44,13.19h-1.06l.37,1.56,2.25.13Zm.44,3.31-1.12,1.12.88.88,2.13.5-1.37-1.37ZM410.5,191v1.62h1.25l1.25-1.25ZM13.92,350.85l2.59.58,2.22-.63.85-1.64,2,.32,1.88,1.88.08,2.57,1.54.48.32,2,2.38.42.53-1.91-1.3-1.3,1.11-1.11.72.71,2.28,1.9V358l-.32,2.49,1.32,2.17,1.32.9.48,3.23-1.16,2.43L27.21,372l-8.42-10Zm343.82,3.58-2.42,1.21-1.82.61.45,3.93.3,2.12,1.66.45.61,3.18,3.18.3,1.06-2.57-1.51-2.57.15-2.87ZM304.2,341.27l-3.33.91-2,2.57-1.51,2,1.06,2.87,2.42.91,2.27.91,2.12-1.51,2.57.45,1.36-3.17-2.12-2.72-.15-2.27Z" transform="translate(-12.54 -94.83)"/></g></svg>